<?xml version="1.0" encoding="UTF-8" standalone="no"?>
<!-- Created with Inkscape (http://www.inkscape.org/) -->

<svg
   width="23.03945mm"
   height="22.059298mm"
   viewBox="0 0 23.03945 22.059298"
   version="1.1"
   id="svg1"
   xmlns="http://www.w3.org/2000/svg"
   xmlns:svg="http://www.w3.org/2000/svg">
  <defs
     id="defs1" />
  <g
     id="layer1"
     transform="translate(-42.746298,-172.82421)">
    <path
       style="fill:#ff00f1;fill-opacity:1;stroke:none;stroke-width:0.478832"
       id="path7-8"
       d="m 42.746299,174.83359 c 1.268258,3.74254 1.711615,7.70072 2.097347,11.61411 0.104876,1.50359 0.150445,3.01079 0.165412,4.51774 0.0029,0.2919 0.06061,1.30805 -0.06361,1.64784 -0.147193,0.40264 -0.43266,0.7734 -0.502609,0.88359 0.88355,0.37354 4.84293,1.2422 5.11178,0.86897 0.633658,-0.87967 0.584636,-1.40582 0.664028,-2.25401 0.08644,-0.92345 0.109778,-0.87073 0.308886,-1.68933 0.5802,-2.99963 1.200566,-3.7773 2.557663,-6.53349 0.710224,-0.97318 1.341004,-2.00965 2.130665,-2.91956 2.200006,-2.535 5.593461,-5.13552 9.112113,-5.21531 0.490942,-0.0109 0.971851,0.1417 1.457781,0.21265 l -4.396108,-3.14258 v 0 c -0.277771,0.12976 -0.573095,0.22711 -0.833307,0.38921 -0.986728,0.61468 -1.990874,1.53279 -2.776111,2.34952 -2.234552,2.32413 -4.076898,4.98267 -5.904318,7.62638 -1.404875,2.01919 -2.58787,3.76709 -4.06897,5.71846 -0.527697,0.69526 -1.180152,1.21024 -1.714983,1.90001 -0.320656,0.41355 -1.206683,1.02552 -0.851045,1.40941 1.954221,2.1094 3.48539,2.3212 4.876854,2.6663 -0.331245,-0.80878 0.281701,-1.77327 -0.05429,-2.97447 -0.482199,-1.7239 -1.65418,-2.0565 -1.935819,-3.8371 -0.428962,-3.04617 -0.915738,-6.55535 0.156183,-9.53091 0.08919,-0.24757 0.232253,-0.47227 0.348375,-0.70841 z" />
  </g>
</svg>
